<mxfile host="app.diagrams.net" modified="2023-10-03T00:55:46.781Z" agent="Mozilla/5.0 (Windows NT 10.0; Win64; x64) AppleWebKit/537.36 (KHTML, like Gecko) Chrome/117.0.0.0 Safari/537.36" etag="G3KPz31vMDLSO38pS6j0" version="21.8.2" type="device">
  <diagram name="Página-1" id="8Jc2yuBUNc5O9ViJE2CS">
    <mxGraphModel dx="927" dy="534" grid="1" gridSize="10" guides="1" tooltips="1" connect="1" arrows="1" fold="1" page="1" pageScale="1" pageWidth="827" pageHeight="1169" math="0" shadow="0">
      <root>
        <mxCell id="0" />
        <mxCell id="1" parent="0" />
        <mxCell id="MTp5gc8C9CbszGiMfzYL-1" value="Cliente" style="shape=umlActor;verticalLabelPosition=bottom;verticalAlign=top;html=1;" parent="1" vertex="1">
          <mxGeometry x="60" y="10" width="30" height="60" as="geometry" />
        </mxCell>
        <mxCell id="MTp5gc8C9CbszGiMfzYL-7" value="" style="html=1;points=[[0,0,0,0,5],[0,1,0,0,-5],[1,0,0,0,5],[1,1,0,0,-5]];perimeter=orthogonalPerimeter;outlineConnect=0;targetShapes=umlLifeline;portConstraint=eastwest;newEdgeStyle={&quot;curved&quot;:0,&quot;rounded&quot;:0};" parent="1" vertex="1">
          <mxGeometry x="70" y="130" width="10" height="220" as="geometry" />
        </mxCell>
        <mxCell id="MTp5gc8C9CbszGiMfzYL-8" value="" style="endArrow=none;dashed=1;html=1;rounded=0;" parent="1" source="MTp5gc8C9CbszGiMfzYL-7" target="MTp5gc8C9CbszGiMfzYL-1" edge="1">
          <mxGeometry width="50" height="50" relative="1" as="geometry">
            <mxPoint x="60" y="130" as="sourcePoint" />
            <mxPoint x="110" y="80" as="targetPoint" />
          </mxGeometry>
        </mxCell>
        <mxCell id="MTp5gc8C9CbszGiMfzYL-9" value="" style="html=1;points=[[0,0,0,0,5],[0,1,0,0,-5],[1,0,0,0,5],[1,1,0,0,-5]];perimeter=orthogonalPerimeter;outlineConnect=0;targetShapes=umlLifeline;portConstraint=eastwest;newEdgeStyle={&quot;curved&quot;:0,&quot;rounded&quot;:0};" parent="1" vertex="1">
          <mxGeometry x="510" y="130" width="10" height="210" as="geometry" />
        </mxCell>
        <mxCell id="MTp5gc8C9CbszGiMfzYL-17" value="--" style="html=1;points=[[0,0,0,0,5],[0,1,0,0,-5],[1,0,0,0,5],[1,1,0,0,-5]];perimeter=orthogonalPerimeter;outlineConnect=0;targetShapes=umlLifeline;portConstraint=eastwest;newEdgeStyle={&quot;curved&quot;:0,&quot;rounded&quot;:0};" parent="1" vertex="1">
          <mxGeometry x="220" y="130" width="10" height="220" as="geometry" />
        </mxCell>
        <mxCell id="MTp5gc8C9CbszGiMfzYL-19" value=":Catálogo" style="html=1;whiteSpace=wrap;" parent="1" vertex="1">
          <mxGeometry x="460" y="15" width="110" height="50" as="geometry" />
        </mxCell>
        <mxCell id="MTp5gc8C9CbszGiMfzYL-22" value="Interface" style="shape=umlBoundary;whiteSpace=wrap;html=1;" parent="1" vertex="1">
          <mxGeometry x="185" y="10" width="80" height="55" as="geometry" />
        </mxCell>
        <mxCell id="MTp5gc8C9CbszGiMfzYL-29" value="Controller" style="ellipse;shape=umlControl;whiteSpace=wrap;html=1;" parent="1" vertex="1">
          <mxGeometry x="320" y="10" width="60" height="55" as="geometry" />
        </mxCell>
        <mxCell id="MTp5gc8C9CbszGiMfzYL-30" value="" style="html=1;points=[[0,0,0,0,5],[0,1,0,0,-5],[1,0,0,0,5],[1,1,0,0,-5]];perimeter=orthogonalPerimeter;outlineConnect=0;targetShapes=umlLifeline;portConstraint=eastwest;newEdgeStyle={&quot;curved&quot;:0,&quot;rounded&quot;:0};" parent="1" vertex="1">
          <mxGeometry x="345" y="130" width="10" height="210" as="geometry" />
        </mxCell>
        <mxCell id="MTp5gc8C9CbszGiMfzYL-35" value="VisualizarCatalogo()" style="html=1;verticalAlign=bottom;endArrow=block;curved=0;rounded=0;" parent="1" edge="1">
          <mxGeometry width="80" relative="1" as="geometry">
            <mxPoint x="359" y="152" as="sourcePoint" />
            <mxPoint x="510" y="152" as="targetPoint" />
            <Array as="points">
              <mxPoint x="409" y="152" />
            </Array>
          </mxGeometry>
        </mxCell>
        <mxCell id="MTp5gc8C9CbszGiMfzYL-36" value="Botão- Visualizar Catálogo" style="html=1;verticalAlign=bottom;endArrow=block;curved=0;rounded=0;" parent="1" edge="1">
          <mxGeometry width="80" relative="1" as="geometry">
            <mxPoint x="80" y="150" as="sourcePoint" />
            <mxPoint x="220" y="150" as="targetPoint" />
            <Array as="points">
              <mxPoint x="150" y="150" />
            </Array>
          </mxGeometry>
        </mxCell>
        <mxCell id="MTp5gc8C9CbszGiMfzYL-37" value="Vizualização do &lt;br&gt;catálogo" style="html=1;verticalAlign=bottom;endArrow=block;curved=0;rounded=0;" parent="1" source="MTp5gc8C9CbszGiMfzYL-17" target="MTp5gc8C9CbszGiMfzYL-30" edge="1">
          <mxGeometry x="0.0435" y="10" width="80" relative="1" as="geometry">
            <mxPoint x="230" y="220" as="sourcePoint" />
            <mxPoint x="340" y="220" as="targetPoint" />
            <Array as="points">
              <mxPoint x="250" y="150" />
              <mxPoint x="290" y="150" />
            </Array>
            <mxPoint as="offset" />
          </mxGeometry>
        </mxCell>
        <mxCell id="MTp5gc8C9CbszGiMfzYL-40" value="" style="html=1;verticalAlign=bottom;endArrow=open;dashed=1;endSize=8;curved=0;rounded=0;" parent="1" edge="1">
          <mxGeometry relative="1" as="geometry">
            <mxPoint x="345" y="190" as="sourcePoint" />
            <mxPoint x="230" y="190" as="targetPoint" />
            <Array as="points">
              <mxPoint x="300" y="190" />
              <mxPoint x="280" y="190" />
              <mxPoint x="260" y="190" />
            </Array>
          </mxGeometry>
        </mxCell>
        <mxCell id="MTp5gc8C9CbszGiMfzYL-41" value="" style="html=1;verticalAlign=bottom;endArrow=open;dashed=1;endSize=8;curved=0;rounded=0;entryX=1.5;entryY=0.219;entryDx=0;entryDy=0;entryPerimeter=0;" parent="1" edge="1">
          <mxGeometry relative="1" as="geometry">
            <mxPoint x="505" y="192" as="sourcePoint" />
            <mxPoint x="355" y="192" as="targetPoint" />
          </mxGeometry>
        </mxCell>
        <mxCell id="Fyo-UkffT5jQkGQruNEv-1" value=":Produto" style="html=1;whiteSpace=wrap;" parent="1" vertex="1">
          <mxGeometry x="610" y="15" width="110" height="50" as="geometry" />
        </mxCell>
        <mxCell id="Fyo-UkffT5jQkGQruNEv-2" value=":Carrinho" style="html=1;whiteSpace=wrap;" parent="1" vertex="1">
          <mxGeometry x="770" y="15" width="110" height="50" as="geometry" />
        </mxCell>
        <mxCell id="Fyo-UkffT5jQkGQruNEv-7" value="" style="html=1;points=[[0,0,0,0,5],[0,1,0,0,-5],[1,0,0,0,5],[1,1,0,0,-5]];perimeter=orthogonalPerimeter;outlineConnect=0;targetShapes=umlLifeline;portConstraint=eastwest;newEdgeStyle={&quot;curved&quot;:0,&quot;rounded&quot;:0};" parent="1" vertex="1">
          <mxGeometry x="660" y="140" width="10" height="210" as="geometry" />
        </mxCell>
        <mxCell id="Fyo-UkffT5jQkGQruNEv-8" value="" style="html=1;points=[[0,0,0,0,5],[0,1,0,0,-5],[1,0,0,0,5],[1,1,0,0,-5]];perimeter=orthogonalPerimeter;outlineConnect=0;targetShapes=umlLifeline;portConstraint=eastwest;newEdgeStyle={&quot;curved&quot;:0,&quot;rounded&quot;:0};" parent="1" vertex="1">
          <mxGeometry x="820" y="130" width="10" height="210" as="geometry" />
        </mxCell>
        <mxCell id="Fyo-UkffT5jQkGQruNEv-9" value="Botão-&lt;br&gt;&amp;nbsp;Adicionar ao carinho" style="html=1;verticalAlign=bottom;endArrow=block;curved=0;rounded=0;" parent="1" edge="1">
          <mxGeometry y="10" width="80" relative="1" as="geometry">
            <mxPoint x="80" y="289.5" as="sourcePoint" />
            <mxPoint x="220" y="289.5" as="targetPoint" />
            <Array as="points">
              <mxPoint x="150" y="289.5" />
            </Array>
            <mxPoint as="offset" />
          </mxGeometry>
        </mxCell>
        <mxCell id="Fyo-UkffT5jQkGQruNEv-10" value="Adicione ao carrinho" style="html=1;verticalAlign=bottom;endArrow=block;curved=0;rounded=0;" parent="1" edge="1">
          <mxGeometry x="-0.04" y="10" width="80" relative="1" as="geometry">
            <mxPoint x="230" y="289.5" as="sourcePoint" />
            <mxPoint x="340" y="290" as="targetPoint" />
            <Array as="points">
              <mxPoint x="300" y="289.5" />
            </Array>
            <mxPoint y="1" as="offset" />
          </mxGeometry>
        </mxCell>
        <mxCell id="Fyo-UkffT5jQkGQruNEv-11" value="AdicionarCarrinho()" style="html=1;verticalAlign=bottom;endArrow=block;curved=0;rounded=0;" parent="1" edge="1">
          <mxGeometry x="0.6129" y="10" width="80" relative="1" as="geometry">
            <mxPoint x="355" y="289.5" as="sourcePoint" />
            <mxPoint x="820" y="289.5" as="targetPoint" />
            <Array as="points">
              <mxPoint x="425" y="289.5" />
            </Array>
            <mxPoint as="offset" />
          </mxGeometry>
        </mxCell>
        <mxCell id="Fyo-UkffT5jQkGQruNEv-17" value="" style="html=1;verticalAlign=bottom;endArrow=open;dashed=1;endSize=8;curved=0;rounded=0;" parent="1" edge="1">
          <mxGeometry relative="1" as="geometry">
            <mxPoint x="820" y="310" as="sourcePoint" />
            <mxPoint x="355" y="310" as="targetPoint" />
            <Array as="points">
              <mxPoint x="750" y="310" />
            </Array>
          </mxGeometry>
        </mxCell>
        <mxCell id="L95h3NzHHOkQSHfpg3RJ-1" value="" style="html=1;verticalAlign=bottom;endArrow=open;dashed=1;endSize=8;curved=0;rounded=0;" edge="1" parent="1" source="MTp5gc8C9CbszGiMfzYL-30" target="MTp5gc8C9CbszGiMfzYL-17">
          <mxGeometry relative="1" as="geometry">
            <mxPoint x="335" y="310" as="sourcePoint" />
            <mxPoint x="240" y="310" as="targetPoint" />
            <Array as="points">
              <mxPoint x="290" y="310" />
              <mxPoint x="270" y="310" />
              <mxPoint x="250" y="310" />
            </Array>
          </mxGeometry>
        </mxCell>
        <mxCell id="L95h3NzHHOkQSHfpg3RJ-2" value="" style="endArrow=none;dashed=1;html=1;rounded=0;" edge="1" parent="1">
          <mxGeometry width="50" height="50" relative="1" as="geometry">
            <mxPoint x="225" y="140" as="sourcePoint" />
            <mxPoint x="225" y="60" as="targetPoint" />
          </mxGeometry>
        </mxCell>
        <mxCell id="L95h3NzHHOkQSHfpg3RJ-3" value="" style="endArrow=none;dashed=1;html=1;rounded=0;" edge="1" parent="1">
          <mxGeometry width="50" height="50" relative="1" as="geometry">
            <mxPoint x="349.5" y="140" as="sourcePoint" />
            <mxPoint x="349.5" y="60" as="targetPoint" />
          </mxGeometry>
        </mxCell>
        <mxCell id="L95h3NzHHOkQSHfpg3RJ-4" value="" style="endArrow=none;dashed=1;html=1;rounded=0;" edge="1" parent="1">
          <mxGeometry width="50" height="50" relative="1" as="geometry">
            <mxPoint x="514.5" y="140" as="sourcePoint" />
            <mxPoint x="514.5" y="60" as="targetPoint" />
          </mxGeometry>
        </mxCell>
        <mxCell id="L95h3NzHHOkQSHfpg3RJ-5" value="" style="endArrow=none;dashed=1;html=1;rounded=0;" edge="1" parent="1">
          <mxGeometry width="50" height="50" relative="1" as="geometry">
            <mxPoint x="664.5" y="145" as="sourcePoint" />
            <mxPoint x="664.5" y="65" as="targetPoint" />
          </mxGeometry>
        </mxCell>
        <mxCell id="L95h3NzHHOkQSHfpg3RJ-6" value="" style="endArrow=none;dashed=1;html=1;rounded=0;exitX=1;exitY=0;exitDx=0;exitDy=5;exitPerimeter=0;" edge="1" parent="1" source="Fyo-UkffT5jQkGQruNEv-8">
          <mxGeometry width="50" height="50" relative="1" as="geometry">
            <mxPoint x="827" y="140" as="sourcePoint" />
            <mxPoint x="827" y="65" as="targetPoint" />
          </mxGeometry>
        </mxCell>
        <mxCell id="L95h3NzHHOkQSHfpg3RJ-8" value="" style="html=1;points=[[0,0,0,0,5],[0,1,0,0,-5],[1,0,0,0,5],[1,1,0,0,-5]];perimeter=orthogonalPerimeter;outlineConnect=0;targetShapes=umlLifeline;portConstraint=eastwest;newEdgeStyle={&quot;curved&quot;:0,&quot;rounded&quot;:0};" vertex="1" parent="1">
          <mxGeometry x="820" y="270" width="10" height="40" as="geometry" />
        </mxCell>
        <mxCell id="L95h3NzHHOkQSHfpg3RJ-9" value="AtualizaCarrinho()l" style="html=1;align=left;spacingLeft=2;endArrow=block;rounded=0;edgeStyle=orthogonalEdgeStyle;curved=0;rounded=0;" edge="1" target="L95h3NzHHOkQSHfpg3RJ-8" parent="1" source="L95h3NzHHOkQSHfpg3RJ-8">
          <mxGeometry relative="1" as="geometry">
            <mxPoint x="850" y="270" as="sourcePoint" />
            <Array as="points">
              <mxPoint x="840" y="270" />
              <mxPoint x="840" y="280" />
              <mxPoint x="880" y="280" />
              <mxPoint x="880" y="300" />
            </Array>
          </mxGeometry>
        </mxCell>
        <mxCell id="L95h3NzHHOkQSHfpg3RJ-11" value="Botão-&lt;br&gt;&amp;nbsp;Selecionar produto" style="html=1;verticalAlign=bottom;endArrow=block;curved=0;rounded=0;" edge="1" parent="1">
          <mxGeometry y="10" width="80" relative="1" as="geometry">
            <mxPoint x="80" y="230" as="sourcePoint" />
            <mxPoint x="220" y="230" as="targetPoint" />
            <Array as="points">
              <mxPoint x="150" y="230" />
              <mxPoint x="190" y="230" />
            </Array>
            <mxPoint as="offset" />
          </mxGeometry>
        </mxCell>
        <mxCell id="L95h3NzHHOkQSHfpg3RJ-12" value="Seleção Produto" style="html=1;verticalAlign=bottom;endArrow=block;curved=0;rounded=0;" edge="1" parent="1">
          <mxGeometry y="10" width="80" relative="1" as="geometry">
            <mxPoint x="230" y="230" as="sourcePoint" />
            <mxPoint x="350" y="230" as="targetPoint" />
            <Array as="points">
              <mxPoint x="340" y="230" />
              <mxPoint x="350" y="230" />
            </Array>
            <mxPoint as="offset" />
          </mxGeometry>
        </mxCell>
        <mxCell id="L95h3NzHHOkQSHfpg3RJ-17" value="SelecaoProd()" style="html=1;verticalAlign=bottom;endArrow=block;curved=0;rounded=0;" edge="1" parent="1" target="Fyo-UkffT5jQkGQruNEv-7">
          <mxGeometry x="0.4754" y="10" width="80" relative="1" as="geometry">
            <mxPoint x="355" y="230" as="sourcePoint" />
            <mxPoint x="435" y="230" as="targetPoint" />
            <mxPoint as="offset" />
          </mxGeometry>
        </mxCell>
        <mxCell id="L95h3NzHHOkQSHfpg3RJ-18" value="" style="html=1;verticalAlign=bottom;endArrow=open;dashed=1;endSize=8;curved=0;rounded=0;" edge="1" parent="1" source="Fyo-UkffT5jQkGQruNEv-7">
          <mxGeometry relative="1" as="geometry">
            <mxPoint x="635" y="260" as="sourcePoint" />
            <mxPoint x="520" y="260" as="targetPoint" />
            <Array as="points">
              <mxPoint x="620" y="260" />
              <mxPoint x="580" y="260" />
              <mxPoint x="560" y="260" />
              <mxPoint x="540" y="260" />
            </Array>
          </mxGeometry>
        </mxCell>
        <mxCell id="L95h3NzHHOkQSHfpg3RJ-19" value="" style="html=1;verticalAlign=bottom;endArrow=open;dashed=1;endSize=8;curved=0;rounded=0;" edge="1" parent="1" source="MTp5gc8C9CbszGiMfzYL-9">
          <mxGeometry relative="1" as="geometry">
            <mxPoint x="470" y="260" as="sourcePoint" />
            <mxPoint x="355" y="260" as="targetPoint" />
            <Array as="points">
              <mxPoint x="415" y="260" />
              <mxPoint x="395" y="260" />
              <mxPoint x="375" y="260" />
            </Array>
          </mxGeometry>
        </mxCell>
        <mxCell id="L95h3NzHHOkQSHfpg3RJ-20" value="" style="html=1;verticalAlign=bottom;endArrow=open;dashed=1;endSize=8;curved=0;rounded=0;" edge="1" parent="1">
          <mxGeometry relative="1" as="geometry">
            <mxPoint x="345" y="260" as="sourcePoint" />
            <mxPoint x="230" y="260" as="targetPoint" />
            <Array as="points">
              <mxPoint x="270" y="260" />
              <mxPoint x="250" y="260" />
            </Array>
          </mxGeometry>
        </mxCell>
      </root>
    </mxGraphModel>
  </diagram>
</mxfile>
